<?xml version="1.0" encoding="utf-8"?>
<!-- Generator: Adobe Illustrator 23.0.1, SVG Export Plug-In . SVG Version: 6.00 Build 0)  -->
<svg version="1.1" id="Capa_1" xmlns="http://www.w3.org/2000/svg" xmlns:xlink="http://www.w3.org/1999/xlink" x="0px" y="0px"
	 viewBox="0 0 169 50" style="enable-background:new 0 0 169 50;" xml:space="preserve">
<style type="text/css">
	.st0{fill:#FFFFFF;}
	.st1{opacity:0.5;}
	.st2{clip-path:url(#SVGID_2_);fill:#FFFFFF;}
	.st3{clip-path:url(#SVGID_4_);fill:#FFFFFF;}
	.st4{clip-path:url(#SVGID_6_);fill:#FFFFFF;}
	.st5{clip-path:url(#SVGID_8_);fill:#FFFFFF;}
</style>
<g>
	<polygon class="st0" points="56.39,33.18 56.39,12.43 54.81,12.43 54.81,9.91 60.24,9.91 60.24,33.18 	"/>
	<path class="st0" d="M65.53,12.66l3.59-1.9v5.1h5.04v2.6h-5.04v9.34c0,0.42,0.02,0.81,0.05,1.17c0.03,0.37,0.12,0.68,0.26,0.95
		c0.14,0.27,0.35,0.48,0.63,0.64c0.27,0.16,0.67,0.24,1.17,0.24c0.81,0,1.61-0.12,2.41-0.38l0.95,2.45
		c-0.62,0.25-1.25,0.43-1.9,0.55c-0.65,0.11-1.31,0.17-1.99,0.17c-0.92,0-1.71-0.1-2.36-0.3c-0.65-0.2-1.19-0.51-1.6-0.92
		c-0.42-0.41-0.72-0.93-0.91-1.56c-0.19-0.63-0.28-1.37-0.28-2.23V18.47h-3.06l0.02-2.6h3.04V12.66z"/>
	<path class="st0" d="M76.95,16.61c1.01-0.33,2.04-0.58,3.07-0.76c1.04-0.18,2.09-0.27,3.17-0.27c0.97,0,1.88,0.1,2.71,0.28
		c0.83,0.19,1.56,0.51,2.16,0.96c0.61,0.45,1.09,1.04,1.43,1.77c0.35,0.73,0.53,1.63,0.53,2.71v11.86h-2.75l-0.4-1.92
		c-0.61,0.8-1.34,1.38-2.21,1.76c-0.87,0.37-1.79,0.56-2.78,0.56c-0.9,0-1.73-0.1-2.48-0.31c-0.75-0.21-1.4-0.53-1.94-0.97
		c-0.54-0.44-0.96-1-1.26-1.68c-0.31-0.68-0.46-1.5-0.46-2.47c0-0.95,0.17-1.74,0.5-2.39c0.34-0.65,0.78-1.17,1.34-1.59
		c0.56-0.41,1.2-0.73,1.94-0.94c0.74-0.22,1.49-0.37,2.28-0.47c0.78-0.1,1.57-0.15,2.36-0.15c0.79-0.01,1.53-0.01,2.21-0.01v-1.77
		c0-0.52-0.11-0.94-0.34-1.27c-0.23-0.33-0.52-0.58-0.88-0.77c-0.35-0.18-0.75-0.31-1.18-0.37c-0.44-0.06-0.87-0.09-1.3-0.09
		c-0.97,0-1.92,0.09-2.85,0.29l-0.4,2.22h-2.47L76.95,16.61z M86.38,24.9h-1.86c-0.57,0-1.15,0.02-1.73,0.07
		c-0.59,0.04-1.12,0.17-1.61,0.37c-0.48,0.21-0.87,0.51-1.18,0.9c-0.3,0.4-0.45,0.96-0.45,1.68c0,1.96,0.99,2.94,2.96,2.94
		c0.45,0,0.91-0.07,1.37-0.19c0.46-0.13,0.88-0.32,1.24-0.58c0.37-0.26,0.67-0.58,0.9-0.97c0.23-0.38,0.35-0.84,0.35-1.36V24.9z"/>
	<path class="st0" d="M90.89,9.91h5.31v19.61c0,0.32,0.09,0.55,0.27,0.7c0.18,0.15,0.41,0.25,0.67,0.31
		c0.26,0.05,0.53,0.06,0.81,0.02c0.29-0.04,0.54-0.09,0.75-0.15l0.63,2.6c-0.44,0.11-0.89,0.21-1.33,0.27
		c-0.44,0.07-0.89,0.1-1.33,0.1c-0.58,0-1.12-0.09-1.61-0.26c-0.49-0.18-0.92-0.43-1.28-0.76c-0.36-0.33-0.64-0.73-0.84-1.22
		c-0.2-0.48-0.31-1.02-0.31-1.61V12.43h-1.74V9.91z"/>
	<path class="st0" d="M102.49,18.36l-1.56-0.02v-2.53l5.11,0.02v17.32h-3.55V18.36z M101.96,11.46c0-0.32,0.06-0.62,0.19-0.89
		c0.13-0.28,0.3-0.52,0.51-0.72c0.21-0.2,0.46-0.36,0.74-0.48c0.28-0.12,0.57-0.18,0.89-0.18c0.31,0,0.6,0.06,0.88,0.18
		c0.28,0.12,0.54,0.28,0.75,0.49c0.22,0.21,0.39,0.45,0.51,0.72c0.13,0.27,0.19,0.56,0.19,0.88c0,0.31-0.06,0.61-0.19,0.88
		c-0.13,0.27-0.3,0.51-0.52,0.71c-0.22,0.2-0.47,0.36-0.75,0.48c-0.28,0.11-0.57,0.17-0.87,0.17c-0.3,0-0.6-0.06-0.87-0.17
		c-0.28-0.12-0.53-0.27-0.75-0.48c-0.22-0.2-0.4-0.44-0.52-0.71C102.02,12.07,101.96,11.78,101.96,11.46"/>
	<path class="st0" d="M109.84,16.61c1.01-0.33,2.04-0.58,3.07-0.76c1.04-0.18,2.1-0.27,3.17-0.27c0.97,0,1.88,0.1,2.71,0.28
		c0.83,0.19,1.56,0.51,2.16,0.96c0.61,0.45,1.09,1.04,1.43,1.77c0.35,0.73,0.52,1.63,0.52,2.71v11.86h-2.75l-0.4-1.92
		c-0.6,0.8-1.34,1.38-2.21,1.76c-0.87,0.37-1.8,0.56-2.78,0.56c-0.9,0-1.73-0.1-2.48-0.31c-0.75-0.21-1.4-0.53-1.93-0.97
		c-0.54-0.44-0.96-1-1.26-1.68c-0.3-0.68-0.46-1.5-0.46-2.47c0-0.95,0.17-1.74,0.5-2.39c0.33-0.65,0.78-1.17,1.34-1.59
		c0.56-0.41,1.21-0.73,1.94-0.94c0.73-0.22,1.49-0.37,2.27-0.47c0.78-0.1,1.57-0.15,2.36-0.15c0.79-0.01,1.53-0.01,2.21-0.01v-1.77
		c0-0.52-0.11-0.94-0.34-1.27c-0.23-0.33-0.52-0.58-0.87-0.77c-0.36-0.18-0.75-0.31-1.19-0.37c-0.44-0.06-0.87-0.09-1.3-0.09
		c-0.98,0-1.92,0.09-2.85,0.29l-0.4,2.22h-2.47L109.84,16.61z M119.27,24.9h-1.86c-0.57,0-1.15,0.02-1.74,0.07
		c-0.59,0.04-1.12,0.17-1.6,0.37c-0.48,0.21-0.88,0.51-1.18,0.9c-0.3,0.4-0.46,0.96-0.46,1.68c0,1.96,0.98,2.94,2.96,2.94
		c0.46,0,0.91-0.07,1.38-0.19c0.46-0.13,0.88-0.32,1.24-0.58c0.37-0.26,0.67-0.58,0.9-0.97c0.23-0.38,0.35-0.84,0.35-1.36V24.9z"/>
	<path class="st0" d="M125.08,15.88h4.33l0.45,1.98c0.61-0.73,1.36-1.3,2.24-1.69c0.89-0.39,1.18-0.48,2.15-0.59
		c0.91,0,1.74,0.11,2.47,0.32c0.73,0.22,1.37,0.55,1.89,0.99c0.52,0.44,0.93,1.01,1.2,1.7c0.28,0.69,0.41,1.51,0.41,2.46v12.11
		h-3.55V21.05c0-0.53-0.07-0.97-0.22-1.33c-0.15-0.35-0.37-0.64-0.65-0.86c-0.28-0.21-0.62-0.36-1.02-0.46
		c-0.26-0.06-0.54-0.12-0.75-0.13c-1.33-0.03-2.3,0.36-2.91,1.07c-0.61,0.71-0.92,1.71-0.92,2.99v10.82h-3.57V18.4h-1.55V15.88z"/>
	<path class="st0" d="M150.1,15.58c1.41,0,2.59,0.23,3.54,0.69c0.96,0.46,1.73,1.1,2.32,1.91c0.59,0.81,1.01,1.76,1.27,2.86
		c0.26,1.1,0.39,2.29,0.39,3.55c0,1.28-0.13,2.47-0.39,3.56c-0.26,1.09-0.68,2.04-1.27,2.85c-0.59,0.8-1.36,1.44-2.32,1.9
		c-0.95,0.46-2.13,0.69-3.54,0.69c-1.4,0-2.59-0.23-3.55-0.69c-0.96-0.46-1.74-1.1-2.33-1.9c-0.59-0.8-1.01-1.75-1.26-2.85
		c-0.26-1.1-0.38-2.28-0.38-3.56c0-1.26,0.13-2.45,0.38-3.55c0.25-1.1,0.67-2.06,1.26-2.86c0.59-0.81,1.37-1.45,2.33-1.91
		C147.52,15.81,148.7,15.58,150.1,15.58 M146.21,24.58c0,0.68,0.04,1.39,0.11,2.12c0.08,0.74,0.25,1.41,0.51,2.03
		c0.26,0.62,0.65,1.13,1.17,1.53c0.51,0.4,1.2,0.6,2.08,0.6c0.88,0,1.57-0.2,2.08-0.6c0.51-0.4,0.9-0.91,1.17-1.53
		c0.27-0.62,0.44-1.3,0.51-2.04c0.08-0.74,0.12-1.45,0.12-2.12c0-0.45-0.02-0.91-0.05-1.39c-0.03-0.48-0.09-0.95-0.19-1.43
		c-0.1-0.46-0.23-0.91-0.41-1.33c-0.18-0.43-0.41-0.79-0.69-1.11c-0.28-0.31-0.63-0.57-1.05-0.76c-0.41-0.19-0.91-0.28-1.48-0.28
		c-0.86,0-1.54,0.21-2.06,0.61c-0.51,0.4-0.9,0.91-1.16,1.53c-0.27,0.62-0.44,1.3-0.52,2.04C146.25,23.2,146.21,23.91,146.21,24.58"
		/>
	<polygon class="st0" points="56.61,41.34 56.61,43.76 56.16,43.76 56.16,38.81 56.61,38.81 56.61,40.97 59.04,40.97 59.04,38.81 
		59.49,38.81 59.49,43.76 59.04,43.76 59.04,41.34 	"/>
	<path class="st0" d="M65.3,41.29c0,1.62-0.82,2.55-2.08,2.55c-1.23,0-2.07-0.9-2.07-2.55c0-1.63,0.85-2.56,2.07-2.56
		C64.45,38.73,65.3,39.62,65.3,41.29 M61.61,41.29c0,1.48,0.66,2.18,1.61,2.18c0.99,0,1.61-0.7,1.61-2.18
		c0-1.51-0.63-2.19-1.61-2.19C62.25,39.1,61.61,39.79,61.61,41.29"/>
	<path class="st0" d="M69.53,39.28l-0.27,0.28c-0.37-0.33-0.71-0.46-1.18-0.46c-0.63,0-1.06,0.32-1.06,0.84c0,0.51,0.28,0.74,1.19,1
		c0.91,0.28,1.47,0.59,1.47,1.47c0,0.85-0.66,1.43-1.69,1.43c-0.7,0-1.21-0.24-1.63-0.62l0.27-0.28c0.36,0.33,0.76,0.54,1.35,0.54
		c0.72,0,1.24-0.38,1.24-1.05c0-0.6-0.3-0.85-1.21-1.12c-1.01-0.31-1.45-0.64-1.45-1.36c0-0.7,0.6-1.21,1.5-1.21
		C68.73,38.73,69.13,38.93,69.53,39.28"/>
	<path class="st0" d="M72.44,38.81c1.18,0,1.88,0.45,1.88,1.48c0,1.12-0.79,1.54-1.9,1.54h-0.73v1.93h-0.45v-4.95H72.44z
		 M72.42,41.48c0.85,0,1.43-0.27,1.43-1.18c0-0.84-0.53-1.14-1.42-1.14h-0.74v2.31H72.42z"/>
	<rect x="75.82" y="38.81" class="st0" width="0.45" height="4.95"/>
	<polygon class="st0" points="79.48,39.19 79.48,43.76 79.04,43.76 79.04,39.19 77.53,39.19 77.53,38.81 81.03,38.81 80.97,39.19 	
		"/>
	<path class="st0" d="M82.01,42.41l-0.45,1.35h-0.45l1.7-4.95h0.56l1.69,4.95h-0.47l-0.45-1.35H82.01z M83.09,39.16l-0.95,2.88h1.9
		L83.09,39.16z"/>
	<polygon class="st0" points="88.92,43.37 88.86,43.76 86.35,43.76 86.35,38.81 86.79,38.81 86.79,43.37 	"/>
	<rect x="92.61" y="38.81" class="st0" width="0.45" height="4.95"/>
	<polygon class="st0" points="96.28,39.19 96.28,43.76 95.84,43.76 95.84,39.19 94.33,39.19 94.33,38.81 97.82,38.81 97.77,39.19 	
		"/>
	<path class="st0" d="M98.8,42.41l-0.45,1.35H97.9l1.7-4.95h0.56l1.69,4.95h-0.47l-0.45-1.35H98.8z M99.88,39.16l-0.96,2.88h1.9
		L99.88,39.16z"/>
	<polygon class="st0" points="105.71,43.37 105.65,43.76 103.14,43.76 103.14,38.81 103.59,38.81 103.59,43.37 	"/>
	<rect x="107" y="38.81" class="st0" width="0.45" height="4.95"/>
	<path class="st0" d="M109.62,42.41l-0.44,1.35h-0.45l1.7-4.95h0.56l1.7,4.95h-0.47l-0.45-1.35H109.62z M110.7,39.16l-0.95,2.88h1.9
		L110.7,39.16z"/>
	<path class="st0" d="M116.73,43.76l-2.4-4.48c0.02,0.34,0.06,0.82,0.06,1.71v2.77h-0.42v-4.95h0.57l2.42,4.48
		c-0.01-0.21-0.06-0.83-0.06-1.47v-3.01h0.43v4.95H116.73z"/>
	<path class="st0" d="M123.12,41.29c0,1.62-0.82,2.55-2.08,2.55c-1.23,0-2.07-0.9-2.07-2.55c0-1.63,0.86-2.56,2.07-2.56
		C122.28,38.73,123.12,39.62,123.12,41.29 M119.43,41.29c0,1.48,0.66,2.18,1.61,2.18c1,0,1.61-0.7,1.61-2.18
		c0-1.51-0.63-2.19-1.61-2.19C120.08,39.1,119.43,39.79,119.43,41.29"/>
	<polygon class="st0" points="129.75,43.37 129.69,43.76 127.17,43.76 127.17,38.81 127.62,38.81 127.62,43.37 	"/>
	<path class="st0" d="M131.22,42.41l-0.44,1.35h-0.45l1.7-4.95h0.56l1.7,4.95h-0.47l-0.45-1.35H131.22z M132.3,39.16l-0.95,2.88
		h1.89L132.3,39.16z"/>
	<path class="st0" d="M139.02,38.81c1.18,0,1.88,0.45,1.88,1.48c0,1.12-0.8,1.54-1.9,1.54h-0.73v1.93h-0.45v-4.95H139.02z
		 M139,41.48c0.85,0,1.43-0.27,1.43-1.18c0-0.84-0.53-1.14-1.42-1.14h-0.74v2.31H139z"/>
	<polygon class="st0" points="144.89,43.37 144.83,43.76 142.32,43.76 142.32,38.81 142.77,38.81 142.77,43.37 	"/>
	<path class="st0" d="M146.3,42.41l-0.45,1.35h-0.45l1.7-4.95h0.56l1.69,4.95h-0.47l-0.45-1.35H146.3z M147.37,39.16l-0.95,2.88
		h1.89L147.37,39.16z"/>
	<polygon class="st0" points="151.43,39.19 151.43,43.76 150.99,43.76 150.99,39.19 149.48,39.19 149.48,38.81 152.97,38.81 
		152.92,39.19 	"/>
	<path class="st0" d="M153.88,42.41l-0.44,1.35h-0.45l1.7-4.95h0.56l1.69,4.95h-0.47l-0.45-1.35H153.88z M154.95,39.16L154,42.04
		h1.9L154.95,39.16z"/>
	<g>
		<g class="st1">
			<g>
				<defs>
					<rect id="SVGID_1_" x="11.38" y="6.11" width="16.16" height="16.19"/>
				</defs>
				<clipPath id="SVGID_2_">
					<use xlink:href="#SVGID_1_"  style="overflow:visible;"/>
				</clipPath>
				<path class="st2" d="M27.55,12.39c-0.02-0.11-0.03-0.21-0.05-0.32c-0.42-2.33-1.07-4.37-1.48-5.24
					c-0.63-1.33-1.18-0.52-1.65,0.05c-0.47,0.57-2.61,4.34-5.22,6.98c-2.64,2.62-6.41,4.76-6.98,5.22
					c-0.57,0.47-1.38,1.03-0.05,1.65c0.93,0.44,3.19,1.15,5.71,1.56C18.91,17.42,22.7,13.57,27.55,12.39"/>
			</g>
		</g>
		<g class="st1">
			<g>
				<defs>
					<rect id="SVGID_3_" x="32.99" y="6.11" width="16.18" height="16.26"/>
				</defs>
				<clipPath id="SVGID_4_">
					<use xlink:href="#SVGID_3_"  style="overflow:visible;"/>
				</clipPath>
				<path class="st3" d="M42.27,22.37c2.71-0.39,5.2-1.17,6.19-1.63c1.33-0.63,0.52-1.18-0.05-1.65c-0.57-0.47-4.34-2.61-6.98-5.22
					c-2.62-2.64-4.75-6.41-5.22-6.98c-0.47-0.57-1.03-1.38-1.65-0.05c-0.41,0.87-1.07,2.91-1.48,5.24
					c-0.03,0.14-0.05,0.29-0.08,0.44C37.64,13.82,41.24,17.62,42.27,22.37"/>
			</g>
		</g>
		<g class="st1">
			<g>
				<defs>
					<rect id="SVGID_5_" x="33.05" y="27.64" width="16.13" height="16.25"/>
				</defs>
				<clipPath id="SVGID_6_">
					<use xlink:href="#SVGID_5_"  style="overflow:visible;"/>
				</clipPath>
				<path class="st4" d="M48.46,29.26c-0.97-0.46-3.43-1.23-6.12-1.62c-0.92,4.9-4.56,8.83-9.29,10.19c0.01,0.03,0.01,0.06,0.02,0.1
					c0.41,2.33,1.07,4.37,1.48,5.24c0.63,1.33,1.18,0.52,1.65-0.05c0.47-0.57,2.6-4.34,5.22-6.98c2.64-2.62,6.41-4.76,6.98-5.23
					C48.98,30.45,49.79,29.89,48.46,29.26"/>
			</g>
		</g>
		<g class="st1">
			<g>
				<defs>
					<rect id="SVGID_7_" x="11.38" y="27.72" width="16.1" height="16.18"/>
				</defs>
				<clipPath id="SVGID_8_">
					<use xlink:href="#SVGID_7_"  style="overflow:visible;"/>
				</clipPath>
				<path class="st5" d="M17.74,27.72c-2.49,0.41-4.72,1.12-5.64,1.55c-1.33,0.63-0.52,1.18,0.05,1.66c0.57,0.47,4.34,2.6,6.98,5.22
					c2.62,2.64,4.75,6.41,5.22,6.98c0.47,0.57,1.03,1.38,1.65,0.05c0.41-0.87,1.06-2.89,1.48-5.21
					C22.55,36.74,18.72,32.74,17.74,27.72"/>
			</g>
		</g>
		<path class="st0" d="M19.84,22.54c2.11,0.16,5.74-0.41,6.83-1.72c1.19-1.44,1.31-4.16,1.15-6.26c-0.06-0.73-0.15-1.46-0.27-2.17
			c-4.85,1.18-8.64,5.03-9.73,9.91c0.23,0.04,0.46,0.07,0.69,0.1C18.94,22.46,19.39,22.51,19.84,22.54"/>
		<path class="st0" d="M33.89,20.82c1.09,1.31,4.73,1.88,6.83,1.72c0.45-0.03,0.89-0.08,1.34-0.15c0.07-0.01,0.14-0.02,0.21-0.03
			c-1.03-4.75-4.63-8.54-9.28-9.85c-0.11,0.67-0.2,1.36-0.25,2.05C32.58,16.67,32.7,19.43,33.89,20.82"/>
		<path class="st0" d="M42.34,27.64c-0.09-0.01-0.19-0.03-0.28-0.04c-0.44-0.06-0.89-0.11-1.34-0.14c-2.1-0.17-5.74,0.41-6.83,1.72
			c-1.21,1.42-1.31,4.15-1.15,6.26c0.06,0.81,0.17,1.62,0.31,2.4C37.78,36.48,41.42,32.54,42.34,27.64"/>
		<path class="st0" d="M27.82,35.44c0.16-2.11,0.04-4.82-1.15-6.26c-1.09-1.32-4.73-1.89-6.83-1.72c-0.45,0.03-0.89,0.09-1.33,0.15
			c-0.26,0.04-0.51,0.07-0.76,0.12c0.98,5.02,4.81,9.02,9.74,10.25c0-0.01,0-0.02,0-0.03C27.63,37.12,27.75,36.28,27.82,35.44"/>
	</g>
</g>
</svg>
